<svg xmlns="http://www.w3.org/2000/svg" viewBox="0 0 760 428"><path fill="#fff" fill-rule="evenodd" d="M550 419c-13-5-15-6-20-16c-5-10-12-14-20-12c-2 1-4 2-4 2c-2 1 3 6 7 8c4 1 7 4 7 5c0 1-1 0-2 0c-1-1-4-2-6-3c-2-1-6-3-8-5c-4-3-5-3-9-3l-6 1 1 3c1 7 1 8 6 11c7 4 9 5 9 6c-1 0-2-1-4-1c-1-1-4-2-6-3c-4 0-8-5-9-11c-1-4-2-6-4-8c-2-1-5-4-8-7c-4-5-4-5-3 5c0 3 0 5 0 4c-1 0-1-1-1-2c0-1-1-5-2-8c-2-4-3-8-2-8c0 0-1-2-2-2c-2-3-7-2-6 0c0 1 0 3 0 5c0 1 1 2 1 1c0-1 2 2 3 7c3 8 4 11 2 7c-6-10-8-14-8-17c0-2 0-3-1-3c-2-1-7 5-9 10c-3 8-3 7-2-2c1-1 1-2 0-2c-4 2-6 4-8 7l-3 4 4 2c3 2 6 3 8 3c2 0 6 1 8 1c3 1 6 2 9 2c4 1 12 5 11 6c-1 0-2-1-4-1c-2-1-5-2-7-2c-2 0-6-1-8-2c-5-1-12-2-12 0c0 0 1 2 2 3l2 3-3-2c-2-1-4-3-4-4c-2-2-8-6-9-4c-1 2-4 7-6 8c-2 1-2 1 0-2c3-6 3-9 1-10c-3-2-9-1-15 2c-4 2-9 3-14 4c-11 1-12 2-16 4c-4 3-5 1 0-3c3-3 3-3-3-4c-3 0-9 0-13 0c-7-1-8-1-13 2c-8 4-11 4-15 0c-3-1-5-2-7-3c-4 0-13 2-15 4c-1 1-2 1-2 0c0-1 4-5 10-7l6-2-2-3c-1-1-3-2-4-1c-1 0-2 0-3 0c-1 0-7 6-8 9c-1 2-2 3-2 3c-1 0-1 0-1-1c1 0 0-1 0-3c-1-1-1-2 0-2c1 0 2-1 4-3l2-3-2 0c-3 0-6 3-5 4c0 1 0 1-1 1c0 0-3 2-6 4l-4 4 3-5c2-3 3-6 3-7c0-1 2-1 2 0c1 2 3-1 3-3c0 0 0 0-1 1c0 0-1 1-1 1c-1 0-1 0-1-1c2-2-1-1-4 2c-3 3-4 3-4 3c-1-1-1-1-1 0c1 3-1 6-2 5c-1-1-1-1-1 0c-1 1-1 2 0 1c1 0 1 0 1 1c0 1-5 5-8 7c-3 1-3 1-1-1c2-1 5-5 10-14c1-2 2-4 2-5c0-3-2-2-7 3c-5 5-6 5-3 1c2-2 3-4 3-4c0-2-7 2-10 6l-4 4 2-4c1-3 4-6 5-8c5-4 3-5-5-2c-3 0-5 1-7 1c-7 1-11 6-11 16c0 4 0 6-3 10c-5 7-6 7-3 2c3-7 3-10 1-14c-3-10 0-18 7-20c2 0 4-1 6-2l2-1-4-3c-5-4-10-5-13-4c-3 1-11 2-10 2c2-2 12-5 14-4c0 1 1 1 2 1c0 0-2-2-5-5c-5-3-6-3-7-2c-1 1-3 2-4 2c-5 0-13 5-16 10c-4 5-9 9-13 11c-4 1-9 6-9 9c0 2-2 4-2 2c-2-5 4-13 12-18c5-4 11-10 11-13c0 0 2-2 4-4c4-2 5-3 5-6c-1-6-9-19-13-20c-4-1-8-3-15-10c-6-6-10-9-18-11c-2-1-10-4-18-8c-16-6-26-9-43-12c-26-3-34 0-41 14c-5 9-12 10-17 1c-4-7-2-14 5-19c1-1 5-4 9-7c12-10 22-11 39-6c5 1 14 4 21 6c11 3 34 12 43 17c3 1 17 6 16 6c-2-3-18-12-21-14c-3-1-4-2-3-2c1-1 1-1-1-1c-1 1-2 0-3 0c0-1-3-2-5-3c-2-1-4-3-3-3c0-1 0-1-1-1c0 1-2 0-3 0c-2-1-2-2-1-2c1-1 1-1 0-1c-3 0-17-14-21-22c-3-4-7-8-9-10c-3-2-4-3-3-3c1-1 1-1-1-2c-1 0-2-1-1-1c1 0 0-1-1-3c-1-2-2-4-1-4c0-1-1-1-2-2c-1 0-2-1-1-1c1-1 1-1-1-3c-1-1-2-2-1-2c0 0 0 0-1-1c-1-1-1-1 0-1c1 0 0-1-1-4c-1-2-2-3-1-3c1 1 1 0 1 0c0-1 0-2-1-1c-1 0-1 0-1-1c0-1-1-2-2-3c-1 0-2-1-2-1c2 0-2-4-4-4c-1 0-1 0 0-1c2-1 0-4-2-4c-1 1-1 1 0 0c1-2 1-2 0-2c-1 0-2 0-2-1c1-1 1-1 0-1c-1 0-1-1-1-1c0-1 0-2-1-2c-1 0-1 0-1-1c1-1 0-1-1-1c0 0-1 0-1-1c1-1 0-1-1-1c-1 0-1 0 0-2c1-1 1-1-1-1c-1 0-1 0-1-1c0-1-1-2-2-2c-2 0-2 0 0-1c2-1 2-1-1-1c-3 0-3 0-2-1c1-1 1-1 0-1c-2 0-6-3-5-4c0-1-1-1-3-1c-3 0-3 0-2-1c2-1 2-1-1-1c-1 0-3 0-2 0c0-1-1-1-2-1c-1-1-2-1-2-2c1-1-4-3-5-2c0 0-1-1-2-2c-1-1-1-1-4 0c-2 2-3 2-2 1c1-1 1-2 0-3c-1 0-2 0-2 1c-1 2-1 2-2 1c-1-1-2-1-2 1c-1 1-2 1-3 1c-1-1-2 0-2 0c-1 1-1 1-1 0c0-1 0-2 1-2c1-1 1-2 1-2c0-3-4 3-4 5c0 2 1 4 2 5c1 1 2 3 2 4c1 1 2 3 3 4c3 1 3 1 6-1c1-1 3-1 4-1c1 0 2-1 3-2c1-1 2-1 2 0c-1 1-1 1 1 1c2 0 3 0 2 0c0 1 1 1 1 1c1 0 2 1 2 1c1 1 2 2 2 2c1 0 3 1 4 2c1 1 3 2 4 2c2 0 2 0 1 1c-1 1-1 1 1 1c1 1 2 1 2 2c0 0 2 3 4 6c6 6 12 17 14 22c1 2 1 4 2 4c0 0 1 1 1 1c0 3 3 9 4 9c1 0 1 0 1 1c-1 0 0 2 1 3c1 1 2 2 2 2c0 1 1 2 3 4c3 3 13 18 12 19c0 0-3-3-5-8c-6-9-6-9-1 2c5 9 8 13 9 13c0-1 2 0 3 2c2 2 6 4 9 6c4 1 6 2 5 3c-1 1 0 1 2 1c6 0 6 0 5 1c-1 2-14-1-19-3c-5-3-9-9-16-22c-4-6-8-14-11-18c-2-3-6-10-8-15c-9-20-17-31-28-37c-8-5-11-5-16-3c-7 2-9 1-13-5c-10-14 1-24 18-18c26 9 43 28 62 69c4 9 16 29 20 33c3 4 20 16 25 20l4 2 4-3c3-2 4-2 10-2c5 1 8 1 10 0c1-1 5-2 8-2l6 0-3-11c-2-13-4-20-7-27c-2-5-4-5-9 0c-9 8-14 9-20 4c-10-11 4-29 26-32c5-1 8-2 8-3c0-1 0-1-1-1c-1 1-1-1-1-4c0-2-2-3-2-1c-1 1-1 1-1-1c1-1 0-2-2-1c-2 0-3-1-2-1c0-1 1-2 0-3c0-1 1 0 1 1l2 2-1-2c-1-6-6-14-7-12c-1 1-1 1-1 0c0-2 0-2-2-2c-1 1-1 1-1 0c1 0-1-2-3-3c-1-1-2 0-2 0c0 1-1 1-1-1c-1-1-2-1-2-1c0 1-1 1-2-1c-1-1-1-1 0 0c0 1 0 2-1 2c-1 0-1-1-1-2c0-1 0-1-2 0c-1 1-1 1-1 1c1-2-1-4-3-3c0 1-1 1-1 0c-2-2-8-1-11 1c-4 5-1 12 6 10c1 0 3 0 4 0c0-1 0-1 0-2c0-1 0-1 1 0c2 1 2 1 3 0c2-1 2-1 3 0c0 1 1 2 2 2c1 0 2 0 2 1c-1 1-1 1 0 1c1 0 1 0 0 1c-1 1-1 1 1 1c2-1 3 0 2 1c0 1 0 1 1 1c1-1 1 0 1 0c0 1 0 2 1 2c0 0 1 1 2 3c0 2 1 3 3 4l4 0-3 1c-3 0-3 1-2 2c2 2 3 7 1 7c-1 0-1 0-2 0c0 0-2-4-5-9c-6-11-9-13-18-13c-7 0-9-1-11-5c-3-10 8-15 24-11c17 4 23 10 29 30l2 7 8 1c4 1 11 4 16 6c4 2 9 4 9 3c1 0 4-14 4-17c0 0-2-2-4-3c-8-2-11-8-7-14l2-3-6-9c-11-17-17-35-19-54c-1-13-2-16-6-21c-6-6-4-11 5-16c10-5 17-2 23 10c5 8 5 10 4 20c-2 17 1 25 13 39c7 9 11 14 18 28l5 9 8 3c5 2 10 5 13 7c2 1 6 4 8 6c4 3 5 5 3 5c-1 0-2 0-2-1c-1 0-3-1-5 0c-4 0-14-3-14-5c0-1 2 0 4 1c5 3 7 3 3 0c-1-1-2-2-2-2c1 0 6 2 9 4c3 2 3 1 1-2c-2-2-4-3-5-3c0 0-1 0-1-1c0-1-6-4-13-7l-5-2 2 3c3 7 10 18 11 17c0-1 1 0 4 1c2 1 4 2 6 2c4 0 9 3 10 6c1 4 1 5-2 2c-3-1-14-4-14-4c0 2 8 14 11 18c2 2 5 6 7 9l4 5 1-3c1-3 1-4-1-11c-3-9-6-19-6-26c-1-4-2-10-3-14c-5-19-6-26-8-45c-3-29-5-38-8-46c-4-11-6-13-12-13c-9-2-14-6-14-13c0-14 33-15 46-1c6 7 6 10 7 34c1 12 2 27 2 32c1 5 2 15 2 21l0 11 3-2c4-1 7-1 10 2c1 2 2 1 2-8c0-10 0-16 4-38c1-5 2-12 2-16c0-9 1-13 10-24c6-8 10-10 16-10c6 0 11 5 14 13c4 11 2 19-8 30c-9 10-10 13-9 31c0 13 0 17 2 27c2 6 3 12 3 13c0 1 2 6 4 10c10 20 34 40 43 35c3-2 4-14 2-29c-1-14-1-25 1-25c1 0 1 4 1 9c0 9 2 26 3 28c1 0 0 4-1 8c-3 10-3 17-2 22l1 4 0-6c0-3 0-4 1-2c0 5 4 25 5 28c1 3 1 3-1 2c-1-2-1-2 0 0c1 4 4 12 5 12c0-1-1-2-1-4c-1-2-2-3-2-4c0 0 2 3 4 8c2 4 5 8 6 9c1 1 2 2 2 2c-1 2 4 9 7 11c1 1 0-1-3-4c-2-3-3-5-2-4c2 1 3 0 1-2c-1-1 2 2 7 7c4 4 8 8 8 9c0 1 4 5 5 4c1 0 2 2 2 4c0 0-1 0-3 0c-2-1-3 0-2 1c1 1 1 1-1 1c-1 0-1 0 0 1c1 0 1 1 0 1c-4 3-18-14-29-33c-4-7-5-9-5-7c-1 2-1 2-15-7c-1 0-2-1-4-2c-1 0-5-5-9-9c-11-13-16-18-18-19c-3 0-4-3-5-9c0-4 0-5 1-4c1 1 1 1 1 0c0-2 2 0 3 3c1 2 1 2 2 1c0-1 1 0 2 2c1 2 1 2 2 1c0-2 1-2 2 1c2 3 2 3 3 1c1-1 1-1 1 1c0 2 0 2 1 1c1-1 1-1 1 1c1 1 1 1 2 0c1-2 1-2 1-1c0 1 0 2 1 2c0-1 1 0 1 0c1 1 1 1 2 0c1-1 2-1 4 0c0 1 1 0 1 0c1-1 1-1 1 0c0 1 0 2 1 2c1 0 1-1 1-2c0-1 0-1 1 1c1 2 3 3 3 2c2-2 4 1 5 6c1 5 1 5-3 2c-2-1-6-2-9-3c-3-1-6-1-7-2c-5-1 12 18 21 24c5 3 6 4 6 2c-3-5-7-24-8-32c-1-5-2-8-2-6c0 3-2 6-2 3c0-1 0-1-1 0c-1 1-1 1-2 0c-1-1-2-1-3 0c-1 1-1 1-1-1c0-3-1-4-3-1c-1 1-2 1-2 0c1-1-3-3-6-3c0 0-1 0-1-1c0-1-1-1-2-1c-1 0-1 0 0-1c2-1 2-1 0-2c-2-1-3-1-4-1c0 1-2 0-3-1c-1-1-3-4-4-5c-3-3-2-3 3 0c3 3 12 6 15 6c1 0-1-1-4-3c-4-2-9-5-11-8c-3-2-6-5-7-5c-2 0-4-4-5-7c-2-8-1 17 1 31c2 16 7 43 9 48c0 1 2 3 4 4c2 0 3 0 2 0c0-1 7-4 9-3c4 1 2-4-2-7c-2-1-2-1-1 0c1 1 1 2 1 2c-2 0-7-3-9-5c-1-1-2-2-1-1c2 5 0 7-2 3c-2-3-3-5-1-4c1 0 1-1 0-3c-2-1-5-15-5-18c0-1 2 2 4 5c1 3 6 9 11 14c5 5 11 12 13 14c3 3 8 8 15 12c11 7 19 15 25 23c6 10 8 11 12 4c1-3 7-7 13-9c8-2 15-10 18-19c2-10 0-19-7-30c-5-7-7-12-7-24c0-14-5-41-12-60l-2-5 0 4c0 2-1 5-1 6c-1 2 0 4 5 16c6 12 7 17 5 20c0 1-1 2-1 2c-1 0-2 1-4 2c-2 2-2 2 0 2c1 0 3-1 4-2c1-1 2-2 2-1c0 1-3 4-4 4c-1 0-1 0-1 1c0 1 1 1 1 1c1-1 2 0 3 0c1 1 1 1 0 1c-1 0-1 0 0 1c1 1 1 2 0 3c-1 1-1 2 0 2c1 0 1 1 1 1c-1 1 0 2 0 2c1 0 1 1 0 1c-1 1-1 2 0 2c0 0 1 2 0 4c0 2 0 4 1 4c1 1 1 1 0 2c0 0-1 1 0 2c0 0 0 1-1 1c-1 0-1 0 0 1c1 2 1 3 0 5c-1 3-2 21-1 27c1 6 0 4-3-5c-1-4-2-11-3-20c-1-12-1-15-5-26c-7-20-10-25-8-12c1 10 4 19 8 25c5 8 4 11-2 6c-3-3-4-3-6-3c-4 0-12-6-13-10c-1-5-1 1 0 9c4 18 9 27 24 41c9 9 11 12 10 12c-2 1-2 1-1 0c0-1 0-1-1-1c-1 1-3 0-6-3c-2-3-4-4-4-3c2 2 0 1-5-2c-11-9-20-26-24-47c-1-8 0-30 1-32c1-1 2-4 3-7c0-2 1-6 2-8c1-4 1-4-4-12c-5-12-10-19-15-23c-3-3-4-3-11-3c-10 0-13-2-17-10c-7-12 1-24 14-23c25 3 25 3 37 21c3 5 8 14 11 20c4 6 6 10 5 8c0-1 1-4 1-8c2-6 2-7-1-17c-1-6-3-15-3-18c-1-4-2-11-3-17c-2-5-4-16-5-23c-3-31-9-44-24-49c-11-4-15-8-19-20c-6-18 3-32 19-32c11 0 17 6 29 30c9 17 9 18 13 35c4 18 5 27 7 39c0 4 1 12 2 18c1 6 2 17 3 26c1 23 3 28 10 37c10 12 14 19 23 39c11 25 12 26 25 30c9 2 18 5 20 8c1 0 1 1 1 1c-1 0 1 2 3 5c10 11 17 25 18 38c0 9 1 9 2 1c1-9-1-16-13-35c-6-10-24-23-29-21c-2 1-12-4-15-7c-2-1-7-10-7-10c0-1 4 2 8 5c6 4 8 5 11 5c4 0 4 0 4 2c-1 1 0 2 0 2c1 0 2-18 1-23c-1-7-6-17-14-32c-15-27-21-45-22-65c0-7 0-15 0-17c-2-7 5-18 13-23c21-10 39 15 20 28c-15 11-12 41 7 74c8 14 9 21 9 40l0 17 7 6c6 6 10 12 17 25l3 6 2-4c6-13 6-36 2-60c-5-28-1-40 21-63c14-13 27-15 33-4c6 11-1 22-13 22c-20 0-28 17-22 53c3 19 3 42-1 55c-4 11-6 15-12 23c-3 4-5 7-5 8c0 7-5 12-17 20c-4 3-8 7-11 11c-5 5-5 6-3 5c2-1 5-3 8-4c10-3 14-5 12-5c-1 0-1 0 0-1c1-1 1-1-1-1c-1-1-2-1-2-2c0-1 0-1 1 0c1 0 3 1 4 1c3 1 3 1 2 0c-1-1-1-2 3-2c3 0 5 1 4 1c0 1 9 0 13-1c2 0 2 0 1 2c-1 2-2 3-2 3c-1 0-1 0-1 1c0 1 5 0 10-2c10-4 16-18 16-32c0-3 0-5-1-4c0 2-1 4-2 7c0 2 0 4 0 3c1 0 1 1-1 4c-1 4-3 3-1 0c1-2 1-2-1 0c-4 6-10 11-14 13c-3 2-5 3-4 3c1 0 4-1 6-3c3-2 5-3 6-3c1 1-10 7-14 7c-2 1-3 1-2 0c0 0-2-1-6-1c-8 0-14-1-12-3c0-1 1-1 2 0c1 1 5 1 9 1c13 0 23-6 29-19c3-5 3-11 2-37c-1-14 4-22 19-34c9-7 12-11 18-22c8-14 19-24 30-27c20-5 41 11 28 21c-4 4-8 4-15 2c-12-4-16-2-26 12c-3 5-9 12-13 15c-23 22-25 26-27 55c-1 24-4 33-14 48c-12 15-21 19-28 12c-1-2-4-4-6-5c-3-1-14 1-19 3l-4 1 2 3c1 1 3 3 3 4c1 2 2 2 4 2c1 0 2 1 1 1c-1 2 5 3 8 2c3-2 1-4-4-3c-1 1-2 1-2 0c0-1 1-1 1-1c1 0 2 0 2-1c0-1 3-2 5 0c0 1 1 1 4 0c2 0 3 0 4 0c1 1 4 1 7 1c6 0 14 3 13 6c0 1 0 2 1 2c0-1 1 0 2 1c5 4 14 8 18 7c2 0 4 0 6 1c2 1 4 2 5 2c1 0 3 1 5 2c5 4 9 4 13 0c2-2 5-3 6-3c1 0 1 0-1 2c-2 0-3 2-3 3c-1 1-2 2-4 3c-4 2-3 3 4 5c5 2 9 0 15-6c5-5 7-6 13-4c2 1 4 1 6 0l3-1-3 2c-1 1-3 2-4 1c-6-1-9 0-15 6c-10 10-14 10-25 2c-6-5-10-6-13-3c-2 1-4 2-6 3c-3 0-7 4-7 7c0 3 2 7 3 8c1 1 1 1 0 1c-3 0-5-2-6-6c-1-2-2-4-6-6c-3-1-9-5-12-9c-4-4-8-7-10-8c-6-1-15 8-14 14c1 2 1 2 0 1c-1-1-2-6-1-9c0-1-1-2-4-2c-2-1-5-2-7-2c-4-2-4-2-7 1l-2 2 2 2c2 1 2 2 1 2c-1 1-1 1 1 0c1 0 3 1 5 3c1 2 4 4 7 5c2 1 4 2 4 3c-1 0-2 0-2-1c-1 0-2-1-3-1c-2 0-6-2-10-5c-6-4-7-4-10-4c-3 1-6 0-9-1c-7-2-14-2-13 1c2 8 6 12 14 15c4 2 11 6 9 6c0 0-3-1-7-2zM625 405c1-1 3-3 6-4c8-4 8-5-3-6c-6-1-13-4-18-9c-4-3-4-3 1 2c3 4 5 8 6 11c2 7 6 10 8 6zM615 402c0-2-9-13-11-13c0 0-2-1-3-3c-3-2-9-3-9-2c0 1 3 2 6 4c5 4 10 8 13 12c2 3 4 4 4 2zM386 399c2-1 7-3 10-3c2-1 6-1 7-2c4 0 13-8 12-9c-1-2-4-1-9 3c-3 1-5 3-6 3c-1 0-4 1-7 3c-4 2-7 3-7 3c-2 0-7 4-6 4c1 0 3-1 6-2zM350 394c7-3 8-3 13-2c3 0 6 0 7 0c0 0 1 1 0 1c0 1 2 1 5 1c3-1 4 0 3 0c-1 1-1 1 0 1c2 0 2-1 2-2c0 0 1-1 4-1c4 0 9-2 9-3c-1 0-3-1-6-1c-3 1-5 0-5 0c0-1-1-1-3-1c-1 0-3 0-4 0c0-1-1-1-2-1c0 1-4 1-8 1c-6 0-15 3-15 5c0 0-1 1-3 2c-4 3-10 2-13-1c-3-2-8-2-12 0l-2 2 2-1c7-1 10 0 15 3c3 2 4 2 13-3zM560 393c3-3 3-5-2-7c-5-2-6-2-9 3c-3 6-3 7 5 7c3 0 4-1 6-3zM347 392c6-4 6-5-1-5c-4 1-5 1-6-1c-1-3-7-5-11-5c-4 0-4 0-2 2c0 2 1 3 1 3c0 2 1 4 2 4c1 0 1-1 0-2c-2-2 0-1 4 2c1 2 7 5 8 5c0 0 3-1 5-3zM638 392c-1 0-4-1-7-1c-3 0-6-1-8-1c-1-1-2-2-3-2c0 0-2-1-4-2c-1-2-3-3-3-3c-1 0 0 2 2 4c2 1 4 3 5 3c0 0 1 1 2 2c1 1 3 1 7 1c4-1 6 0 8 1c1 0 2 1 2 0c1 0 0-1-1-2zM257 389c0-7 8-12 23-14c11-2 18-1 24 2c4 3 15 5 13 3c0 0 1-1 1-2c1 0 1-2 1-3c-1-1 0-3 1-4c1-1 1-1-1-1c-1 0-2 1-2 2c0 4-11 4-15 0c-6-5-11-5-26 0c-19 7-24 10-21 17c0 1 0 3 0 4c0 1 0 1 1 1c0-1 1-3 1-5zM544 390c1-1 3-4 4-5c1-1 2-3 3-3c0-1 2-3 3-5c2-4 5-6 8-5c4 1 4 1 2-1c-5-6-10-3-18 11c-2 4-5 8-6 8c-1 1-1 3 0 3c1 0 3-1 4-3zM426 388c-2-2-4-3-4-1c0 0 1 1 2 1c1 1 2 2 3 3c0 1 0 1 1 0c0-1-1-2-2-3zM493 391c2 0 3-2 1-2c-2 0-4-3-6-8c-3-8-6-11-9-11c-6 0-6 1-3 8c4 10 12 16 17 13zM585 391c1-1 3-3 4-3l3-2-2-1c-4-2-22-2-23 0c0 1 1 2 3 3c10 4 12 5 15 3zM503 390c0-1-7-4-8-4c-1 2 3 4 5 4c2 0 3 0 3 0zM412 383c1 0 1-1 0-2c-1-1-2-1-4 1c-1 0-3 1-3 0c-1 0-1 0-1 1c1 0-1 2-2 3c-3 1-4 2-3 3c1 1 2 0 7-3c3-1 6-3 6-3zM434 388c1-2 1-2-1-1c-1 1-2 2-2 1c0 0 0-1 1-2c2-1 1-2-2-2c-4 0-5 1-1 4c3 3 4 3 5 0zM540 388c2-2-3-6-13-8c-2 0-5-1-7-2c-2 0 8 9 11 11c3 1 8 1 9-1zM509 388c0-2-4-7-9-9c-3-2-5-3-5-2c0 1 4 4 6 4c1 0 2 1 2 1c0 1-1 1-2 1c-2-1-3 1-2 3c1 1 2 1 2 0c0 0 2 1 4 1c3 2 4 2 4 1zM364 384c1-2-10-2-13-1c-4 1-3 2 2 3c3 1 9-1 11-2zM520 386c-1 0 0-1 0-1c1-1 1-1 0-2c-2 0-3-1-4-2c-1-1-4-3-8-5c-3-2-9-6-14-8c-14-9-14-9-18-7c-2 1-6 2-10 2c-9 0-15 3-21 10l-4 5 7-4c3-3 7-5 8-6c2-1 7-1 7 0c0 1 0 1 1 0c1-1 3-1 4-1c1 0 3 0 4-1c4-2 15 0 17 3c1 0 2 1 2 1c2 0 12 5 13 6c0 0 2 2 4 3c3 1 6 4 8 5c4 3 4 4 4 2zM418 381c-3-2-5-4-6-5c-1 0-2-1-2-1c0-1-1-2-2-3c-1-2-1 0 1 3c3 5 11 11 12 10c1 0-1-2-3-4zM288 382c2-1 3-2 2-3c0 0-2 1-4 2c-4 4-3 4 2 1zM215 376c1 0 2-1 2-1c2 0 5-3 5-4c0-1-11 5-14 8c-1 1-2 2-2 2c0 1 8-3 9-5zM425 379c2 0 6-2 9-3c4-1 8-4 12-7c7-6 7-6 4-7c-3-1-15 1-22 4c-3 1-7 2-11 2c-8 0-8 3 0 10c3 3 3 3 8 1zM566 380c0-1-3-5-5-5c-1 0-2 1-3 2c-2 1-2 1 1 3c3 1 6 1 7 0zM400 378c4-1 4-1 0-5c-1-2-2-4-3-6c-1-5-2-7-5-8c-7-1-10-2-14-5l-3-2-2 2c-6 7-10 12-11 11c-1 0-2 0-2 1c-1 1 1 1 4 1c5 0 6 0 8-3c2-2 3-3 3-2c-1 1 0 2 2 4c1 1 2 2 2 4c-1 4 0 5 3 4c2-1 2-2 2-3c-1-2-1-3 1-3c1 1 2 2 2 5c0 7 6 9 13 5zM545 378c0-1 0-2-1-1c-2 0-2 0-2-2c0-1 1-2 2-2c1 0 2 0 2-1c1-1 2-1 2-1c1 0 1 0 0 1c0 0-1 1-1 1c0 1 1 0 2-1c2-1 3-3 3-3c-1 0 0-1 0-2c1-1 1-1-1-1c-1 1-3 2-3 2c0 1-1 1-2 1c0 0-1 0 0-1c1-2-2-1-11 3c-9 5-9 5-1 7c2 1 3 0 3-1c1-1 1-2 2-2c1 0 1 0 0 1c0 0-1 1-1 1c0 1 1 1 1 1c1-1 2 0 3 1c2 2 3 1 3-1zM375 378c0-2-9-6-16-7c-10-3-16-6-23-13c-6-5-8-7-11-8c-2 0-5-1-8-1c-6-2-9 0-10 5c-1 3-1 4 0 5c2 0 6 4 6 5c-1 0-2 0-2-1c-1-1-2-1-2 0c0 3 9 2 14-1c6-3 10-4 10-1c0 1 1 3 3 5l3 3-2 1c-2 1-3 1-2 2c0 2 13 3 18 2c1 0 1 0 1 1c0 1 9 2 18 3c1 1 3 1 3 1c0 0 0 0 0-1zM608 378c-1-1-2-2-3-2c-1 0-2 0-3-1c0-1-2-1-3-1c-2 0-2 1 2 2c2 1 5 2 6 2c3 1 4 1 1 0zM331 369c0-2-1-4-2-4c-1 0-2 5-1 7c2 2 3 1 3-3zM376 371c0-3-1-4-4-3c-2 2-3 3 0 4c2 1 4 1 4-1zM406 366l0-5-12-12c-16-17-20-25-28-54c-1-5-2-6-1-3c0 4 0 4-2 3c-2-1-3 0-4 1c-1 2-1 2 0 2c1-1 2 0 2 0c0 1 1 1 2 0c1-2 1-2 1-1c0 1 0 2 1 2c1 0 1 1 1 1c-1 1-1 2 0 2c1 0 3 6 3 7c0 1-2 0-4-2c-3-1-10-3-17-5c-14-5-22-8-32-14c-7-4-8-4-8-2c-1 1-2 2-3 2c-2 1-4 6-2 7c1 0 4 3 7 5l5 6 0-9l-1-8 3 2c3 1 3 1 2 13c-1 7-1 7 3 4c3-2 4-8 1-12c-2-3 0-3 5 0c4 2 6 6 4 6c-1 0-1 1-1 2c1 1 1 1 2 0c1-1 1-1 1 0c0 0 2 2 4 4c3 3 4 4 4 2c1-1 1-1 1 2c0 1 1 4 2 6c4 7 6 16 6 21c0 2 1 6 2 7l1 2 0-2c-1-2-1-3 0-3c0 1 1 4 1 8c1 4 2 7 3 8c0 1 1 2 1 3c0 1 0 1 1 0c1-1 2-2 2-2c-1-1 0-1 0-1c0 1 1 1 1 0c1 0-1-6-2-8c-1-1-1-1 0-1c2 2 1 0-1-3c-1-1-2-3-2-3c0-1-1-5-3-8c-1-4-2-7-1-9l0-3 2 3c1 2 1 3 2 3c1-1 2 0 2 4c1 2 2 4 3 4c0 0 1 0 1 1c0 2 8 10 9 9c2-1-5-17-12-28c-2-3-3-5-4-7c0-1-3-4-5-6c-4-4-4-4 2-3c2 1 4 3 5 6c2 3 4 5 4 4c1 0 1 1 1 2c0 1 1 3 2 4c1 2 2 4 2 4c0 1 0 2 1 2c3 3 0-11-4-16c-1 0-1-1 0-1c1 0 5 8 6 12c0 2 0 5 1 6c0 1 0 2 1 3c0 2 3 9 6 11c3 3 6 4 5 2c-1-1 0-2 1-1c0 0 1 1 1 1c0 1 3 3 6 6c6 4 13 13 10 12c-3-1-2 6 1 9c1 1 3 2 3 2c0 0 0-3 0-6zM537 361c5-5 10-10 10-10c1 0 4-3 8-6c4-4 9-8 12-10c5-2 10-7 10-9c0-2-1-1-5 2c-2 2-4 3-4 3c-2 0-10 4-10 5c0 0-1 2-3 3c-5 3-4 1 2-4l5-5-3-2c-2-2-4-3-3-3c0-1 0-1-1-1c0 0-1 0-1 1c0 0-1 5-3 9c-5 14-12 20-24 23c-10 2-10 2-11 5c0 1 1 3 3 5c4 6 6 6 18-6zM310 369c1-1-3-4-4-3c0 1 0 2 0 2c1 2 4 3 4 1zM228 362c2-2 4-3 5-3c1 0 3-1 5-2c2-2 2-2 3-1c0 0 1 1 2 1c1 0 1 0 0-1c-1-1-1-1 1-2c3 0 3 0 2-2c-1-2-2-2-3-1c-1 1-3 2-5 3c-6 2-11 6-13 11c-2 3-3 4-1 2c1-1 3-4 4-5zM275 368c0-1-1-1-2-2c-1 0-1 0 1-1c2-1 3-1 3 1c1 0 3 1 4 1c1 0 1-1-3-4c-5-3-6-4-8-2c-1 1-1 1 0 2c2 1 1 1-3 0c-1-1-4-2-7-3l-4 0 4 3c9 5 13 7 15 5zM501 365c0-5 5-16 8-18c2-2 8-5 13-7c6-2 12-9 13-14c0-2 2-6 2-10c1-4 3-10 4-14c2-9 3-33 1-35c0 0-3-1-5-2c-3-1-6-2-7-2c0-1-1-1-1 0c0 0 5 6 11 11c1 2 2 3 2 10c0 8 0 8-2 6c-1-1-1-1-1 2l1 4-1-3c-1-2-2-4-3-5c0-1-1-3-2-4c-1-3-7-15-13-24c-3-5-10-18-10-19c0 0-1-3-3-6c-1-3-2-5-2-3c1 1 1 3 1 5c1 2 2 7 4 11c1 4 2 8 2 9c0 1 1 2 1 1c1 0 9 13 9 15c0 0-1-1-1-2c-1-1-2-2-3-2c-1 1-10-13-15-23c-4-8-6-17-3-13c2 2 2 2 1-1c0-3 0-3 1-2c1 1 1 1 0-2c0-1-1-3-2-4c-1-1-2-4-3-6c-1-2-2-5-3-6c-3-4-5-9-6-13c0-4-2-7-2-5c0 1 0 3 1 5c1 2 2 10 2 17c2 15 5 24 12 38c9 19 16 31 10 16c-4-7-4-8 0-4c4 5 7 10 8 14c0 3 0 3 1 2c1-2 7 14 9 21c0 2 1 4 1 5c2 4 4 8 4 10c0 4-9 19-11 19c-2 0-1-5 0-6c1 0 0-4-2-11c-1-1-1-1 0 0c1 1 1 1 1 0c0 0-1-2-3-3c-2-1-2-3-2-6c-1-6-1-5-3 1c-1 4-1 5 1 8c1 2 2 5 2 6c0 2 2 8 3 10c1 2 0 3-3 4c-2 1-4-4-3-7c0-1 0-1-1-1c-1 1-2-4-1-8c0-3 0-3-3 2c-9 14-17 32-11 25c1-1 2-3 2-4c0-1 1-2 1-3c4-3 2 3-2 8c-3 3-3 4-3 8c1 4 0 5-3 2c-1-1-2-2-1-3c1-2 3-10 3-12c0-1-1-1-2 0c-1 0-1 0-1-2l1-3-2 3c-2 2-2 2-2 1c1-2 1-2 0-1c-1 0-2 1-2 1c-1 0-1-3 0-4c1-1 1-1 0-1c-1 0-2 0-2-1c1-1 0-1-2-1c-2 1-3 0-3 0c0-1-1-1-1 0c-1 2-1 2-2 0c-1-1-1-1-2 1c0 1-1 2-1 2c-1 0-1 1-1 2c0 2 0 2-1 1c-1-1-1-1-1 0c-1 1-1 2 0 2c0-1 1 0 1 2c0 3-2 3-2-1c0-1-1-1-2-1c-1 0-1-2 2-8c1-4 1-4 0-3c-1 0-1 0-1-2c1-1 0-2 0-1c-1 0-1 1-1 2c1 1 0 3-1 4c0 2-1 5-2 7c0 5 0 5 2 5c2-1 3 1 1 3c-2 2-2 6 0 6c4 0 7-2 7-5c0-3 2-4 2 0c1 2 2 3 5 4c3 1 7 2 9 4c6 3 9 3 9 2zM605 364c-1 0 0-2 1-3c1-1 2-2 1-2c-1 0 0-1 1-2c1-1 1-1 1 0c-1 1 0 2 0 2c1 0 0 1-1 2c-1 1-2 2-1 2c1 0 4-3 3-6c0-1 1-4 2-6c6-8 6-8 0-5c-8 6-11 7-29 8c-13 1-17 1-22 3c-9 4-7 6 5 3c5-1 11-1 18-1c8 0 10 0 10-1c0-2 2 0 2 3c1 3 2 3 6 3c0 0 1 1 0 1c0 1 1 1 1 0c1 0 2-1 2-1zM297 363c1 0 1-1 0-4c-1-3-1-3 2-8c4-6 4-7 1-7c-2 0-3 0-4 0c0 0-3 0-5 0c-4 0-5 0-5 2c0 1 0 2-1 2c-1 0 0 2 2 4c1 2 3 5 4 6c3 6 3 7 6 5zM354 361c-1-1-2-5-3-8c-1-6-4-8-12-8c-4 0-7-1-10-2c-4-3-10-4-19-3c-1 0-2 0-2-1c0 0 0-1-1-1c0 0-1-1-1-3c0-2-1-5-1-8c-1-4-1-4-2-2c-1 2-1 2-2 1c0 0-1 0-1 2c0 2-1 6-2 8c-2 5-1 6 6 6c2 0 4 0 4 0c1 0 2 0 2 0c2 0 17 2 20 3c1 1 6 4 10 8c10 10 16 14 14 8zM288 362c0-1-4-9-6-11c-2-2-10-6-10-5c0 1 0 1 1 1c1 0 1 1 1 1c0 1 1 3 2 4c1 2 4 5 6 7c3 3 6 5 6 3zM397 357c-1-3-5-7-7-7c-4 0-11-4-14-7l-2-3 3 6c3 6 7 10 12 11c3 0 5 1 6 2c2 1 3 0 2-2zM423 359c0-1 1-1 2-1c1 1 2 1 3 0c1-1 1-1 0-1c0 0 0 0 1-1c2-1 2-1 0-3c-1-2-2-3-1-4c0 0 0 0-1 0c-1 1-3 0-6-3c-2-3-4-4-3-2c0 1 0 1-1 0c-2-1-2-1-1 2c2 4 2 3-2-1c-1-2-2-3-2-2c0 1 0 1-1 0c-1-2-1-3 0-2c1 0 1 0 1-1c-1 0-2-1-3 0c0 0-1 0-1-1c0 0-1-1-2-3c-1-1-1-1 0 0c0 2 0 2-1 1c-1 0-2-1-2-2c-1-2-1-2-2-2c-2 1-2 0-2-2c0-2 0-2-1-1c-2 1-2 1-2 0c0-1 0-1-1 0c-1 0-1 0-1-1c0 0 0-1 0-1c-1 0-5-3-5-4c0-2-1-7-2-7c-1 0-1-1-1-1c0-1 0-2-1-2c-1 0-2-5-2-8c-1-1-1-3-2-4c-1-1-2-3-2-4c1-1 0-3 0-4c-1 0-1-2-1-5c0-2-1-4-1-4c-1 0-5 2-5 3c1 1 1 2 2 4c0 4 1 5 1 7c1 1 1 1 1 2c-1 0 0 1 1 2c1 2 1 2 0 2c-1-1-2-1-1 0c0 1 1 1 1 1c1 0 2 1 2 2c0 3 1 5 3 10c2 4 4 6 5 7c1 0 1 0 0 1c-1 1-1 1 0 1c1 0 2 1 2 2c0 1 1 2 2 3c1 0 2 1 2 2c0 0 6 7 7 7c1 0 1 0 0 1c0 1 1 1 2 1c0 0 1 0 0 1c0 1 1 1 2 1c0 0 1 0 0 1c0 1 0 1 1 1c2 0 7 6 6 8c0 1 8 5 10 5c1 0 1 0 2-1zM458 359c1-1 2-13 0-14c-1-2-12 7-12 10c0 3 10 6 12 4zM252 355c-2-2-3-4-3-5c-1-1-2-2-2-2c-1 0 1 5 3 8c3 3 5 2 2-1zM304 351c0-2 0-3 0-3c-1 0-3 2-3 6c-1 4-1 4 0 2c1-1 2-4 3-5zM273 356c0-1-1-2-1-4c-2-3-7-6-10-6c-2 0-3 0-3-1c0-1-1-1-2-2c-3-1-6-4-6-6c0-1 0-2-1-1c-4 2 1 16 6 19c2 2 15 2 17 1zM517 352c2 0 7-5 9-9c1-3 1-3-7 1c-7 4-9 6-9 11l0 2 3-2c2-2 4-3 4-3zM438 352c1 1 2 1 2 0c1 0 2-1 2-1c2 0 4-1 4-3c1 0 1-1 0-1c0 1-2-1-4-3c-2-2-5-4-6-5c-2-1-4-3-5-5c-2-2-3-4-4-4c-1 0-1 0-1-1c0-1 0-2-1-3c-1 0-1 0-1 1c1 1 1 1 0 0c-1-1-2-2-3-2c0 0-1 0-1-1c0-1-1-1-2 0c-2 1-4-2-3-4c0-2 0-2-1-1c-2 1-2 1-1 0c0-1-1-3-2-4c-2-2-2-2-2 1c-1 1-1 2-2 2c-1 0-1-1 0-2c0-4-1-5-3-1c0 1-1 2-2 2c-1 0-1-1 0-2c2-1 2-3 1-4c0-2 0-2-1-1c-1 1-1 1-1 0c0-1 0-2-1-2c-1 0-1 0-1 1c0 1-1 0-2-1c-1-1-2-2-2-3c0 0-1-1-3-3c-4-4-4-2 1 8c4 7 8 12 19 21c4 4 12 11 16 15c6 5 8 7 9 6c1-1 1-1 1 0zM532 351c2-1 4-1 4-1c0 0 2-2 3-4c1-2 2-4 2-4c2 0-1-3-4-3c-2-1-8 4-8 6c0 1-1 2-1 3c-2 1-2 5-1 5c1 0 3-1 5-2zM243 350c2 0-2-21-4-21c0 0 0 1 0 2c1 1 1 1-1 1c-3-1-5-1-8-1c-2 0-2 0 1 3c3 4 8 15 7 16c0 1 0 1 2 1c1-1 2-1 3-1zM621 342c1-3 2-6 2-7c0-1-6 9-6 11c0 2 1 0 4-4zM285 342c2-1 2-1-2-5c-3-2-6-6-9-9c-4-4-5-4-1 0c1 1 1 2 1 3c-1 1-2 0-4-2c-1-1-2-2-2-2c0 1 2 4 6 7c3 3 5 6 5 6c0 2 3 5 4 4c0-1 1-2 2-2zM453 342c2-1 2-2 1-2c-1 1-2 0-2 0c0-3-4-10-9-15c-3-3-4-4-2-2c5 7 6 10 1 3c-3-3-6-6-6-6c0-1-1-2-3-3c-2 0-3-1-3-2c1 0 0-1-1-1c-1 1-4-1-5-2c-2-2-5-4-7-5c-1-1-3-2-3-2c-1-2-8-5-10-5c-1 0-2 0-2-1c0-1-1-1-2-1c-1 1-2 1-2 0c0 0-1-1-2 0c0 0 3 3 9 7c11 6 23 17 31 27c6 7 11 12 13 12c1 0 3-1 4-2zM277 341c0-1-1-2-3-3c-2 0-5-3-7-5c-3-2-4-3-4-2c1 1 1 1 0 1c-3-2-8-16-13-36c-1-8-2-24 0-25c1-1 2-4 3-15c0-7 0-7 3-4c2 1 2 2 0 12c-1 16 1 33 6 41c1 2 1 2 4 1c4-3 5-2 9 1c5 4 5 3 11-3c2-3 5-7 6-8c2-2 3-4 4-6c0-2 2-4 4-6l3-3-11-8c-18-12-46-30-48-30c0 0-1 2-1 4c0 3 0 10 0 17c-1 7-1 12 0 10c1-1 1 0 1 4c0 5 2 16 4 20c0 2 0 2-1 2c-1-1-1-1-1 1c3 5 4 12 4 19c0 9 3 13 13 16c4 1 8 2 10 3c3 2 4 2 4 2zM341 339c0-1 1-1 2-1c1 0 2-1 2-1c0-1-1-1-3-1c-3 1-3 1-2-1c1 0 2-1 2-2c0-1 0-1 1 0c2 1 0-5-3-8c-1-1-2-3-2-4c0-3-5-8-9-8c-4 0-9 5-9 9c0 6 7 14 12 14c4 0 8 2 6 3c0 1 0 1 1 1c1 0 2 0 2-1zM294 338c0 0 1-2 2-5c2-9 5-13 8-13c1 0 2 1 3 2c1 3 6-2 6-8c0-2-6-11-9-13c-3-2-6 0-8 4c-1 2-3 6-5 9c-3 4-4 8-6 16c-1 3-1 3-1 2c-1-2-2-4-3-6c0-1-2-5-2-8c-2-6-4-9-7-10c-3-2-3-2-5 0c-2 5 1 11 14 23c8 8 10 9 13 7zM312 330c2-6 2-6 0-6c-2 1-6 9-5 12c1 2 3 0 5-6zM543 333c1-1 2-3 2-3c1-1 1-1 1-1c-1 0-1-1 0-2c2-4-2-2-5 3c-3 3-3 4-2 5c2 3 3 2 4-2zM628 322c2-11 3-26 2-27c-1 0-1-6 0-6c1-1 1-2 1-2c0-1 0-1-1-1c0 1 0 0 0-2c0-1 1-2 1-2c0 0 1-1 0-2c0-2 0-2 1-1c1 1 1 1 1-1c-1-3-1-3 0-2c1 1 1 1 1 1c0-1 0-2 1-3c0-1 0-1-1-1c-1 1-1 1 0-1c0-1 0-1 1 0c1 1 1 1 1 1c0-1 0-2 1-3c0-1 0-1-1 0c-1 0 0-1 1-3c2-3 4-4 5-4c1 0 2-1 2-3c0-1 0-1 1-1c0 0 2-1 3-2c1-2 0-3-2-1c0 0 4-4 9-9c5-5 10-9 10-9c1 1 1 1 1-1c0-1 2-4 5-8c2-3 4-6 4-5c0 1 0 1 1 1c0-1 1-2 0-3c0-1 0-1 2 0c1 0 1 0 1-1c-1-1 0-2 1-1c0 0 1 0 1-1c0-1 1-2 1-2c1 0 2-1 2-1c0-1 0-1 1 0c1 1 3 1 3-1c0-1 1-1 2 1c0 2 1 3 2 3c0 0 2 0 3 1c1 0 1 0 1-2c-1-1-1-1 1 1c5 4 10 5 15 3c7-4 5-15-2-13c-3 1-3 1-3-1c1 0 1-1 0-1c-2 0-5-1-4-3c0-1-1-1-5 1c-2 0-2 0-1-1c1-2 1-2-4-2c-14 2-25 12-35 29c-4 8-7 12-12 16c-23 20-26 27-23 47c1 4 1 3 1-5c-1-6-1-9 0-7l0 4 1-4c0-1 1 9 1 24c-1 15-1 28-1 29l-1 3 1-3c1-1 2-7 3-13zM494 333c1-2 3-3 3-3c2 0 4-4 4-8c0-2 0-2-1-1c-1 1-2 2-3 2c0 0 1-1 2-2c1-2 2-3 2-4c-1-1-4 1-6 4c0 1-1 2-2 2c-2 0-4 8-2 12c1 2 2 1 3-2zM457 331c1-2 1-2-1 0c-2 1-4-1-5-7c-1-4-1-4 1-2c0 1 1 2 1 4c0 1 0 2 1 2c1 1 1 1 1 0c0-1 3-1 4 1c1 2 1 4-1 4c-1 0-1-1-1-2zM228 328c1 0-1-1-5-2c-4-2-5-2-6-1c-1 1-1 1 0 1c1 0 3 0 5 1c4 2 4 2 6 1zM245 319c0-8-2-15-4-17c-1-1-2-3-2-3c0-2-3-6-5-5c-1 0-1 0 0-1c0-1 0-1-1-1c0 1-1 0-2-1c-1-1-1-2-2-2c0 1-1 0-2 0c-3-1-4 2-2 3c1 1 2 2 2 2c0 1 1 2 3 1c1 0 2 0 2 1c-1 0 1 2 3 4c2 2 4 4 3 4c0 0 0 0 1 1c1 0 1 2 1 3c0 1 1 2 1 2c1 0 1 0 1 1c-1 0 0 3 0 6c1 3 2 6 1 6c0 1 1 3 2 3c0-1 1-4 0-7zM567 325c9-5 9-23-1-38c-8-10-8-10-7 7c0 9 0 17 1 20c0 2 0 5-1 6c-1 2 0 4 3 5c3 1 3 1 5 0zM551 315c1-2 2-12 2-21c0-12 0-18 1-17c1 1 1 1 1-1c0-2-2-3-6-5l-5-3 1 2c1 2 1 5 1 6c0 3 0 3 1 2c1-2 1 0 1 6c0 10-3 26-4 22c0-2-1 0-3 8l-3 10 6-3c5-2 6-3 7-6zM282 321c0-1 0-1 1-1c1 1 1 0 2-2c0-1 1-4 3-6c1-2 3-4 3-5c3-6 5-8 9-8c5 0 4-3-1-3c-4 0-5 1-12 9c-6 6-6 8-6 11c1 2 0 3 0 2c-1 0-1 1 0 3c1 2 2 3 1 0zM228 321c0-2-8-6-10-6c0 0-1 0-1-1c0-1 0-1 1 0c1 0 1 0 1 0c0-1-5-3-6-3c0 0-1-1-2-1c-1-1-2 0-2 1c-1 1 0 2 0 1c1 0 2 1 2 2c1 0 1 1 2 0c1 0 1 0 1 1c-1 2-1 2 0 1c2-1 2-1 2 0c0 1 0 1 1 0c1 0 4 2 3 4c0 0 0 0 1 0c1-1 3 0 3 0c2 2 4 2 4 1zM236 316c-3-11-9-18-17-17c-10 2-11 2-14 1c-6-5 0-17 8-19c5 0 4-2-2-3c-5 0-7 0-10 2c-5 2-5 2-8 1l-3-2 2 1c3 0 3 0 2-1c0 0-2-1-4-1c-3-1-3-1-2 0c2 1 2 1-1 1c-2 0-4 1-6 1c-1 2-1 2 3 4c5 2 19 14 19 16c0 1 3 3 8 5c8 5 24 15 25 16c1 3 1-1 0-5zM320 314c2-2 7-5 9-6c2-1 2-1 0-1c-5 0-11 6-15 13c-1 2-1 2 2 0c1-2 3-4 4-6zM499 312c2-4 1-5-2-1c-3 4-4 10-1 6c1-1 2-3 3-5zM588 308c0-4 1-7 1-6c1 0 1-1 1-3c0-1 1-1 2-2c2 0 3-1 2-1c0-1 0-1 1-1c1 0 1-1 1-1c-1-1 0-2 0-2c1 0 2-3 2-6c0-3 0-6 0-6c0 0 1-2 1-9c1-3 1-5 0-5c-1-1-1-1 0-1c1 0 1 0 1-1c-1 0 0-1 0-1c2-1 2-3 0-6c-1-1-1-1 0-2c1 0 1-4 0-4c-1 0-1-2 1-5c0-3-2-4-5-2c-2 1-2 1 0 1l2 0-2 1l-2 1 2 0l2 0-2 1c-2 1-2 1 0 2c2 1 2 1 0 1c-2 0-3 2 0 2c1 0 1 0 0 1c-1 0-1 0 0 1c1 1 1 1 0 1c-1 0-1 0 0 1c1 1 1 1 0 1c-1 0-1 0 0 1c0 1 0 1-1 1c-1 0-1 2 1 4c1 1 1 2-1 2c0 1-1 2-1 2c1 1 0 4-1 8c0 4-1 7-1 8c-1 5-2 9-4 10c0 1-1 2-1 4c0 2 0 2-1 1c-2-1-2-1 0 4c0 2 1 6 1 7c0 2 1 4 1 4c1 0 1-3 0-6zM432 309c-3-3-8-7-13-10c-10-9-32-31-32-33c0-1-1-6-2-7c-1-1-2-2-2-3c-1-2 1 0 3 2c4 5 13 14 24 23c3 4 6 7 6 8c0 0 3 2 5 4c5 3 14 11 11 10c0-1-1-1-1 0c0 1 0 1 1 1c0 0 2 1 4 3c2 1 2 2 0 1c-1 0-1 0 1 2c4 4 1 4-5-1zM208 309c1-1 0-2 0-1c0 0-1 0-1-1c-1-1-2-1-3-1c0 0-2-1-4-2c-1-1-3-2-4-2c-1 0-2-1-3-1c0-1-1-1-2-1c0 1-2 0-3-1c-1-1-2-1-3-1c-1 0-2 0-2-1c0-1-1-1-5-2c-2-1-8-3-8-4c-2-2-5-3-4-2c1 2-5-1-7-3c0 0-2-1-3-1c-2 0-4-1-5-1c0-2-2-2-3-1c-1 0-3 0-3-1c-1-1-2-2-3-2c-7 0-12-1-11-2c2-1-15-6-21-5c-3 0-4 0-2-1c2-1 2-1-2-1c-4 0-5 0-3 1l3 1-3 0c-2 1-4 1-4 0c-2-3-16 7-16 12c0 2 0 2-1 0l-1-3 0 3c0 2 0 2-1 2c-1-1-2 0-3 1c-1 2-1 2-2 1c-1-1-1-1-1 0c0 1 0 2-1 2c-2-2-4 4-2 5c1 1 2 2 1 2c0 1 0 1 1 2c1 0 1 2 1 4c0 4 3 5 6 2c2-1 2-2 1-2c-1 0 0-1 1-3c1-1 2-4 2-5c0-3 0-3 1-2c1 2 1 2 1 0c-1-2 0-3 2-4c2 0 2-1 1-1c-1 0-2 0-2-1c-1-1 0-1 1 0c1 0 1 0 0-1c0-1 0-1 1 0c3 2 6-1 4-3c-1-1-1-1 1 0c2 1 3 1 3 0c-1-1 12-1 14 0c2 1 5 1 5 0c0-1 1 0 3 0c2 2 3 2 4 1c1-1 1-1 1 0c-1 1-1 1 0 1c1 0 2 0 1-1c0-1 4-1 5 0c0 1 0 1-1 1c-1-1-1-1-1 0c1 1 2 1 3 0c1-2 1-2 1-1c1 1 1 2 2 2c0 0 2 0 3 1c2 0 4 1 5 1c1-1 2 0 2 0c0 1 1 1 1-1c1-1 1-1 1 0c0 2 1 2 3 2c6 0 7 0 7 2c0 1 0 1 1 0c0-2 1-2 1-1c0 1 1 1 1 0c1 0 1 0 1 1c-1 2-1 2 0 1c2-1 2-1 2 0c0 1 0 1 1 1c1-1 1-1 1 0c0 1 0 1 2 0c1-1 1-1 1 0c-1 1 0 2 1 2c0 1 1 1 1 0c-1 0 0-1 1-1c0 0 1 1 1 1c0 1 0 1 1 1c2-1 3 0 2 1c-1 1-1 2 0 2c0 0 1 0 2-1c0-1 1 0 2 1c1 1 1 1 2 0c1-1 1-1 1 0c1 1 2 2 3 1c1 0 1 0 1 1c-1 2 0 3 1 1c2-1 4-1 4 1c0 0 0 1 1 0c1 0 1 0 1 1c0 1 0 1 1 0c1-1 2-1 3 1c1 1 1 1 2 0c1-1 1-1 2 1c1 1 2 2 3 1c0-1 1-1 1 1c1 2 4 2 4 0zM525 306c-1-5-9-25-10-25c0 0 1 2 1 5c1 2 1 7 1 11l0 7 5 3c2 2 5 4 5 4c0 0-1-2-2-5zM482 307c2-4 2-6 0-4c-2 4-1 0 2-4c1-2 3-4 3-5c0-2 1-2 1-1c0 1 1 1 1 0c1 0 1 0 0 1c0 1-1 2 0 5c1 4 0 8-2 10c-1 1-1 1 0-1c2-3 1-5-1-2c-1 3-1 3 1-3c1-6 1-8-1-3c0 2-2 4-2 6c-1 2-2 3-2 4c-1 0 0-1 0-3zM464 301c-8-10-12-15-14-20c-3-5-3-6-1-5c2 2 3 3 3 1c-1 0 0-1 1 0c1 0 2 1 2 1c-1 2 1 6 2 5c1 0 10 6 11 9c1 2 1 2 0 2c-2-1-2-1-2 1c1 1 1 1 0 1c-1-1-1 1 1 4c3 6 2 7-3 1zM213 298c3-1 4-3 7-7c1-2 1-2-2-5c-4-3-6-3-10 1c-3 4-4 6-1 10c1 2 3 3 6 1zM482 296c0-4 3-6 3-3c0 1-2 5-3 5c0 0-1-1 0-2zM506 286c-1-2-2-4-4-6c-1-1-2-3-2-5c0-2-1-2-3-2c-1 0-3-3-4-6c0-2 0-4 0-4c2 0 0-4-1-5c-2 0-2-1-2-4c0-2 0-3-1-3c-1-1-2-2-2-3c0-1-1-2-2-3c-1-1-1-1-1 1c1 1 0 2 0 2c-1 0-1 4 1 11c0 1 1 4 2 4c1 1 2 3 1 3c0 1 2 4 5 7c3 3 5 6 5 7c0 1 1 3 3 5c1 2 3 5 4 8l1 5 1-4c1-4 0-6-1-8zM240 284c-1-6-1-13 0-25l2-17-4-2c-2-2-5-3-6-4l-2-1 2 2c2 3 2 3 2 26c0 20-1 23-2 23c-1-1 0 0 1 1c1 1 4 2 5 4c1 1 3 2 3 2c0 0-1-4-1-9zM339 289c3-2 2-4-1-4c-2 0-3 0-4 1c0 1-1 1-2 1c-1-1-1-1 0 0c1 1 1 1 2 0c2-2 3-1 2 1c-1 1-1 1 0 1c1 0 1 0 0 1c0 2 1 1 3-1zM480 289c-1-2-1-3 0-3c1-1 1-1 1 0c0 0 0 1 1 1c1-1 1 0 1 3c0 2-1 1-3-1zM334 285c3-1 5-3 2-3c-1 0-2-1-2-2c0-1 0-1-2 1c-2 1-3 2-3 1c0 0 0-1 1-1c1 0 1-1 1-1c0-2-1-1-2 0c-3 2-3 5-1 3c1 0 1 0 1 1c-1 2-1 2 1 2c1-1 3-1 4-1zM364 286c0-1-1-6-2-13c-2-6-4-19-5-29c-2-10-4-21-5-25c0-4-1-8-1-9c0-1-1-4-2-7c-1-2-3-7-4-10l-3-6 0 4c-1 2-2 7-3 10l-2 5 3 3c11 10 12 11 12 13l0 2-4-2c-1-1-4-3-5-5c-1-1-2-2-2-1c-1 0-1 0-2-1c0-1 0-1 1 0c1 0 1 0 0-1c-1-1-2-2-2-1c-1 0-3-1-4-3c-2-3-3-1-1 5c1 4 2 5 6 7c3 1 5 2 5 3c0 0-1 0-1-1c-1 0 0 1 1 3c4 4 4 5 3 1c-2-2-1-2 2 2c4 4 6 11 8 22c0 7 0 7-4 3c-2-2-3-2-3-1c0 1 1 2 1 3c2 0 2 1 0 2c-1 1-1 1-1-1c0-1 0-1-1 0c0 1-1 1-1 0c-1 0-2-1-3 0c-1 0-1 0 0-1c0-1 0-2-1-2c-1 0-1 0-1-1c0-2 0-3-2-2c-1 0-1 0-1-1c0-1 0-1-1-1c0 0-1 0-1-1c0 0 1-1 1-2c1-1 1-1 0-1c-1 1-5-6-4-7c0-1 0-1-1-2c-1 0-2-1-1-1c0-1 0-1-1-1c-1 0-1 0-1-1c1 0 0-2-1-4c0-2-1-4 0-4c2-3 0-20-3-20c-1 0-1-1-1-2c0-1-1-3-2-4c-1-1-2-3-2-5c0-1 0-3-1-5c-1-2-1-6-1-10l0-8-4 0c-4 0-5 3-2 8c0 1 1 4 1 8c1 4 1 7 1 8c1 2 1 3 1 4c0 1 0 1 1 1c0-1 1 1 2 3c1 3 2 5 2 6c3 7 5 13 5 14c-1 0-2-2-4-4c-2-3-3-4-3-2c1 1 0 2 0 3c0 0-1-2-2-4c-1-4-1-4 0 1c0 7 2 14 4 13c0 0 3 4 5 10c4 10 11 22 17 28c10 11 8 13-3 2c-5-6-7-7-6-5c1 5 1 5-2 4c-3-2-6-7-6-13c-1-5-5-14-6-13c0 1 0 2 1 3c1 2 1 2 0 3c-1 2 3 14 6 17c4 6 36 22 36 19zM228 281c-4-8-13-38-12-42c0-1-1-2-1-2c0 1-1 0-2-2c0-2 0-4 1-4c3-1 1-2-3-2c-4 0-10 2-6 2c1 0 2 3 5 11c1 1 5 15 5 18c0 0 1 1 1 2c1 1 5 18 5 19c-1 1 5 4 8 4c1 0 0-2-1-4zM325 281c2-1 2-2 1-2c-1-1-1-2-1-4c0-1-1-3-2-3c-1-1-2-3-2-4c0-2 0-2-1-1c0 3-2 2-2-1c0-4-10-13-13-12c-1 0-1-1-1-1c0-1 0-1-1-1c-1 0-2-1-1-1c1-2-10-6-16-7c-4 0-7 0-8 0c-3-1-7-3-8-4c-2-2-10-6-12-6c-1 0-1 0-1-1c1 0-2-2-5-4c-3-1-6-3-5-3c1-1 0-1-1-1c-1 0-2 0-2-1c0 0-2-1-4-1c-8-2-9-2-9-3c1 0 0-1-1-1c-1-1-2-1-2-2c1-1 0-2-2-1c-1 0-2 0-2-1c1-1-3-2-6-2c-1 1-2 1-2 0c0-1-5-3-7-3c-2 0-2 0-1 1c2 1 1 2-1 1c-2 0-3 1-4 1c-1 1-3 2-3 2c-1 0-2 0-1 1c0 1 0 1-1 1c-2-1-5-2-4-1c2 1 1 2-2 1c-2 0-3 0-3 1c1 1 0 1-1 1c-2 0-2 0-1-2c1-1 1-1-2 1c-4 2-9 7-9 11c-2 7 3 12 9 11c4-1 12-9 12-11c0-1 0-1 1 0c1 1 1 1 1 0c1-1 1-1 1-2c-1 0 0-1 0-2c1 0 1-2 1-3c-1-1-1-1 0-1c1 1 2 0 2 0c0-1 1-1 1 0c2 3 3 2 3-1c-1-2-1-2 0-1c1 1 2 2 2 1c2-2 5-1 5 1c-1 3 0 3 1-1c2-2 2-2 2 0c1 1 2 2 2 1c1 0 2 0 2 1c1 1 1 1 2 0c1 0 2 0 3 1c1 1 2 2 1 2c-1 0-1 0-1 1c0 0 1 1 3 0c2 0 2 0 1 1c-1 1-1 1 1 1c3 0 5 1 4 2c0 1 0 2 1 2c2 0 9 1 9 2c0 0 1 1 3 2c2 1 2 1 1 2c-1 1 0 1 3 1c2 1 4 2 4 2c0 1 1 1 2 1c0-1 1-1 0 0c0 1 1 1 2 1c2 0 2 0 1 1c-1 1 0 1 2 1c2 1 3 2 2 2c0 1 1 1 2 1c1 0 2 0 2 1c-1 0 0 1 2 1c1 1 2 1 1 2c0 1 1 1 3 1c2 0 3 0 2 2c0 1 0 1 2 1c4-1 4 1 1 2c-2 1-1 1 2 1c5-1 6 0 4 1c-1 1 0 1 2 1c1 0 3 0 2 0c0 1 1 1 1 1c1 0 2 0 2 1c0 1 1 1 2 1c2 0 3 2 1 2c-1 1-1 1-1 1c1 1 2 0 4 0c3-2 3-2 3 0c0 2 0 3 2 3c7 0 7 0 4 2c-4 3-2 4 2 1c1 0 2-1 2 0c0 0-1 1-2 1c-1 1-2 2-2 2c0 1 1 1 4-1c2-1 2-1 1 0c0 2 0 2 2 1c1 0 1 0 0 1c-1 2-1 2 1 1l2-1-1 2c-2 2-2 2-1 2c1 0 2 0 2-1c2-2 3-1 3 1c-1 1-1 1 1 0c1-1 1-1 1 0c-1 3 0 2 2 0zM377 281c1-2 1-2 0-2c-2 0-3-2-1-3c1 0 0-1-1-2c-1-1-2-2-2-4c0-2 0-4-1-5c-1-1 0-2 0-3c1-1 1-1 0-1c-1 0-1 0 0-1c1-1 1-2 0-3c-2-1-2-2-1-3c1-1 1-2 0-2c0 0-1-7-1-15c0-11 1-13 1-10c1 6 2 5 1-2c0-3-1-5-1-4c0 0-1 0-2-1c-2-1-2-1-1-3c2-1 3-13 1-23c-1-8-4-20-5-21c-1 0-1-2 0-3c0-3 0-3 1-1c1 1 1 0 1-3c-1-2-1-6-1-8c0-4 0-5-1-4c-1 1-1 2 0 3c0 1 0 2-1 3c-1 2-2-11-2-16c1-4 3-2 3 4c0 4 0 3 1-2c0-4 1-9 1-10c1-2 1-2 0-1c0 1-1 1-3 1c-1-1-1-1 1-2c3-1 5-5 4-6c-1-1-1-1 0-1c1 0 2 0 2-1c0-1-1-1-2 0c-1 0-1 0 0-1c1 0 1-1 1-2c-1-1 2-2 4-2c2 0 10-10 11-14c3-10-2-24-10-26c-6-2-11 2-19 14c-6 8-7 12-1 4c5-7 7-10 9-11c1-1 0 0-1 2c-2 3-3 4-2 4c1 1 0 1-1 2c-2 0-3 1-3 2c0 0 1 1 1 0c2 0 1 1 0 4c-1 2-2 4-1 4c1 0 0 1-1 2c-1 1-1 2 0 2c0 0 1 0 1-1c0-1 1-1 1 0c1 0 0 1-1 3c-2 1-3 2-2 2c1 0 1 1 0 3c0 1-1 2-1 1c0-2-2 0-2 2c-1 2-1 2 1 1c1-3 1-2-1 6c-2 5-2 23-1 23c0 0 0 3 0 7c1 3 1 6 2 7c0 1 0 3 0 5c0 2 1 1 1-2l1-6 2 3c1 2 1 4 0 4c-1 1-1 2-1 3c0 4 3 16 4 17c1 1 1 5 0 13c-1 12-1 30 1 41l1 6 0-5c0-5 1-5 1 0c1 2 1 5 1 7c1 3 1 5 2 5c0 1 1 3 1 4c0 6 2 11 4 11c1 0 1 0 0 1c-1 1-1 1 0 1c0 0 1 1 1 2c0 1-1 2-1 2c-1 0 0 1 1 2c1 1 2 2 1 2c-1 0 0 2 1 2c1 0 2-1 4-1zM453 274c-2 0-3-1-4-1c-1 1-4-2-3-3c1 0 0-1 0-2c-1-1-1-1 0-1c1 0 1 0 0-2c-1-1-1-1 1 0c1 1 2 3 1 4c0 1 1 2 1 1c2 0 6 3 6 4c0 1 0 2 0 2c0 0-1-1-2-2zM406 268c-6-7-7-8-5-5c1 2 9 11 10 11c0 0-2-3-5-6zM640 268c1 0 1 0 0-1c0-1 0-2 1-3c1 0 1 0 1 1c-1 3 0 2 3-2l3-5-3 3c-2 2-3 3-3 3c0-2-3 1-4 3c-1 2-1 2 0 1c1 0 2-1 2 0zM138 263c-2-2-3-5-3-5c0-1-1-3-3-4c-3-6-3-7 0-3c3 3 9 12 11 16c2 3-1 1-5-4zM455 257c-2-3-3-6-3-7c0-1-1-2-1-3c-1 0-1-3-1-5c0-3 0-4-1-2c-1 1-1 0-1-4c-1-4-1-8-2-10c0-3 0-4 1-4c1 1 1 2 1 3c0 2 0 2 1 1c1-1 1-1 1 1c1 1 1 1 2 1c0-1-6-12-7-12c-1 0-1 1-1 3c0 1-1 6-2 11c-2 9-3 17 0 20c1 2 14 12 15 12c1 0 0-2-2-5zM319 257c0-1-1-2-1-2c-1 1-6-4-6-6c0-2-3-6-6-6c-1 0-2 0-2-1c1-2 0-4-1-3c-1 0-2-1-2-2c-1-1-1-2-2-1c-1 0-2 0-2-1c-1-1-1-1-2 0c-1 0-2 1-3 1c-1 0-1 0 0-1c1-1 2-2 2-2c-1 0-2-9-2-12c0-1-1-1-1-1c-1 1-2 0-1 0c0-1-1-2-2-4c0-1-1-1-1 0c1 0 1 1 1 1c-1 0-4-6-4-8c0-1 0-2-1-2c-1-1-4-7-6-11c-1-2-2-3-2-3c-1 0-1-1-1-2c1-1 1-2-1-2c-1 0-2-1-2-8c0-2-1-3-2-3c-1 0-1-1-1-2l1-2-1 2c-1 2-3 3-2 0c0 0 0-1-1-1c0 0-1-1 0-2c0-1 0-2-1-2c-2 0-2 0-1-3c1-1 1-3 0-4c-1-1-1-1-1 2c-1 2-1 3-2 3c-1 0-1-1 0-2c1-1 1-2 1-3c0-1-1 0-1 1c-1 1-2 2-2 2c-1 0-1 0 0-1c0-1 1-3 1-4c0-2 0-2-1-1c-1 1-1 1-1-2c0-4-3-7-3-4c-1 1-1 0-1-1c0-3 0-3-1-2c-1 1-1 1-1-1c0-2 0-2-1-2c-1 1-2 0-2-1c0 0 0-1-1 0c-1 0-1 0-1-2c1-1 0-2-1-1c-1 0-2-1-2-2c0-1-1-2-2-3c0-2-1-3-1-4c0-1 0-1 1 1c2 4 2 2 0-3c-2-7-3-8-2-3l1 3-2-3c-1-4-2-5-8-3c-2 1-5 2-6 1c-2 0-3 1-2 2c0 0 1 1 1 1c1 0 1 0 1-1c-1-1 0-1 2 0c1 2 1 2 0 2c-1 1-1 1 0 2c2 2 2 2 1 2c-2-1-2-1-1 1c1 1 2 2 2 2c-1 0 0 1 1 2c1 1 2 2 1 2c0-1-1-1-1 0c0 1 1 1 2 1c2 0 3 3 1 4c-1 1 0 1 1 1c1 0 2 0 1 1c0 1 0 1 1 1c1 0 1 0 1 1c-1 1 0 1 2 1c3 0 3 0 2 1c-1 1-3 1-4 1c-2 0-2 0 0 2c1 1 2 2 4 2c1 1 1 1-1 2l-3 1 3 1c2 0 2 1 1 1c-1 1-1 1 1 2c3 0 3 0 1 2c-1 1-1 1 2 1c4 0 4 0 2 1l-2 1 2 0c2 0 2 0 1 2c-2 1-2 1 1 1c3 0 3 0 1 1c-1 2-1 2 1 2c3 0 3 0 2 1c-1 1-1 1 1 2c2 0 3 1 3 1c0 1 0 1 1 0c1 0 1 1 1 1c0 1 0 2-1 2c-1 0-1 0-1 1c0 1 1 1 2 1c0 0 1 0 0 1c0 1 0 1 2 1c2-1 2-1 1 0c-1 2-1 2 1 3c2 0 2 0 0 1c-1 1-1 1 1 1c1 0 2 0 2 1c0 1 1 1 1 0c1 0 1 0 0 1c-2 2-1 3 1 3c1 0 2 0 1 1c0 1 0 2 1 2c1 0 1 0 0 1c0 1 1 1 1 2c1 0 2 1 1 1c0 1 1 1 2 1c1 0 1 1 1 2c-1 1-1 1 0 1c3-1 4 2 4 13c1 12 3 15 10 17c9 3 22 11 28 17c3 3 4 3 3 0zM552 257c0-1 0-5 0-9c1-9-1-24-3-28c-1-2-2-4-1-5c0-1-7-17-8-16c-1 1-1 1-2-1c-1-1-1-2-1-3c1 0 0-3-1-5c-1-2-2-5-3-6c-1-2-1-3-2-3c-1 1-3-1-5-9c-1-3-1-5-1-5c1 0 1 0 1-1c0-1 0-1-1-1c-1 1-1 1-1 0c0-1 0-1 1-1c1 0 1 0 0-1c0-1-1-1-1-1c0 1 0 0 0-2c1-2 0-4-2-8c0-1 0-2 2-3c2-3 4-10 2-8c-1 1-2 2-2 2c0 4 0 5-2 4c-1 0-1 0 0-1c1-1 2-2 2-2c0-1-1-1-1 0c-1 0 0-1 1-3c1-2 2-3 1-4c-1-1 0-2 1-4c1-2 0-4-4-3c-2 1-3 1-2 0c0-1-1-1-2-1c-2 0-2 0 0-1c1 0 2 0 2 0c1 1 6 0 6-1c0-1-1-1-2-1c-1 0 0-1 2-1c3 0 4-1 4-2c0-2 1-3 3-1c1 1 4 0 3-1c0-1 1-1 2-1c6 0 9-11 4-17c-7-10-21-9-30 3c-4 6-5 10-3 16c1 3 2 5 1 5c-2 1-1 16 1 28c4 14 9 25 17 40c8 15 15 28 16 35c1 3 2 5 2 3c0-1-1-5-2-9c-1-4-1-7-1-6c2 1 4 13 4 19c0 5 0 6-1 3c-1-2-1 1-1 7c0 9 0 10 2 10c4 1 5 1 5 0zM227 248c1-10 0-15-4-17c-4-1-5-1-5 1c3 10 8 25 8 24c0-1 1-4 1-8zM658 251c4-4 7-7 7-7c0-1-4 2-8 6c-9 9-8 9 1 1zM658 247c4-4 7-7 7-7c0 0-4 3-8 7c-5 5-8 8-7 8c1-1 5-4 8-8zM353 246c0-4-8-15-14-18l-3-2 1 3c2 5 5 11 10 15c5 4 6 5 6 2zM650 245c0-1 2-2 2-3c1-1 4-4 6-8c5-9 6-9 2-1c-3 6-12 17-10 12zM498 243c-1-5-1-7 0-5c2 1 3 8 2 8c0 0-1-2-2-3zM600 241c1-2 1-2 0-2c-1 0-1 0 0-1c3-2 2-3-1-2l-3 0 3-2c2-2 2-2 0-1c-1 1-2 1-2 0c-1-1 0-1 0-1c1 0 2-1 3-2c1-1 1-1-1 0c-3 1-4 1-1 0c1-2 1-2 0-2c-2 0-2 0 0-1c1-2 1-2 0-2c-2 0-2 0-1-1c1-1 1-1 0-2c-1 0-1-1 0-3c1-2 1-2-1-2c-1 0-1 0 0-1c2-2 2-2-1-4c-4-2-7-3-5-1c0 1 0 1-1 1c-1 0-1 0 0 2c1 0 1 1 1 1c-1 0-1 1 0 1c0 1 1 2 0 2c0 1 0 1 1 1c2 0 2 0 0 2c-1 1-1 1 1 3c1 1 1 1 0 1c-1 0-1 0 0 1c1 2 1 2 0 2c-1 0-1 0 0 1c2 1 2 3 1 4c-1 1-1 1 0 1c2 0 2 0 1 1c-1 1-1 2 0 2c1 1 1 1 0 1c-3 0-1 2 1 2c2 0 2 0 0 1l-3 1 3 0c1 0 3-1 5-1zM276 230c-3-7-9-18-10-18c0 0-1 4-2 8l-2 8 4 3c4 3 11 7 12 7c0-1-1-4-2-8zM471 233c3-4-1-7-5-3c-2 1-2 1 0 3c3 1 3 1 5 0zM177 228c0-1 3-5 5-7c2-1 6-1 6 0c0 1-1 1-2 1c-1 0-4 2-5 4c-2 1-4 3-4 2zM258 221c0-2 0-4 1-4c1 0 1 0 1-1c0-2 1-7 2-6c2 1 1-2-2-6c-7-9-6-9-7 0c0 4 0 9-1 11c0 3 0 3-1 1c-1-2-1-2-1 0c1 2 0 3 0 3c-2 0 0 2 4 4c5 3 5 3 4-2zM465 224c1-1-1-9-2-9c-1 0-3-5-5-13c-1-3-2-5-3-5c-1 0-1-1-1-1c0-3 0-5-1-4c-1 0-1 0-1-1c1 0 0-2-1-3c0-1-1-2-1-2c0 1-1-2-3-6c-2-7-4-9-10-15c-1-2-2-3-1-3c1-1 0-1-2-1c-1 0-2 0-1-1c1 0 0-1-2-2c-1-1-2-2-1-2c1 0 1 0 0-1c0-1-1-1-3-1c-3 0-4-2-1-2c1-1 1-1-1-1c-1 0-2 1-3 2c-1 1-1 1-3-1c-4-2-3-2 2-3l5-1-5 0c-3 0-6 0-7-1c-5-3-15-1-18 4c-8 11 10 30 19 20c2-2 4-3 2-1c0 1 0 1 1 0c1-1 2-2 2-3c0 0 1-1 1-2c1 0 1 0 1 1c-1 1 0 2 0 2c1 0 1 1 0 2c-1 1-1 1 1 0c2 0 3 0 3 1c-1 1 2 1 4 0c1-1 1-1 1 0c-1 1 0 2 1 2c0 0 1 0 0 1c0 1 1 1 2 1c2-1 2-1 1 0c-2 2-2 2 0 2c1 0 2 0 1 1c-1 0-1 1 1 2c1 0 2 2 2 3c0 0 1 1 1 1c1 0 1 0 0 1c-1 1-1 1 0 1c0 0 1 1 1 2c0 0 1 1 2 1c1 0 1 0 0 1c-1 1-1 1 0 1c2 0 2 1 2 1c-1 1 0 2 0 2c1 0 1 0 1 1c-1 1-1 1 0 1c0 0 1 1 0 1c0 1 1 2 1 3c2 1 2 2 1 2c-1 1-1 1 0 1c2 0 2 0 1 1c-1 1-1 2 1 2c1 1 2 1 2 2c-1 1-1 1 0 1c1 0 1 1 1 1c-1 1 0 2 0 2c1 0 1 0 1 1c-1 1 3 5 5 5c1 0 1 2 1 5c0 0 1 1 2 1c2 1 3 1 3 0zM503 217c-3-6-5-8-3-4c3 7 5 12 6 11c0 0-1-4-3-7zM666 221c2-3 10-12 14-13c4-3 4-2-1 1c-2 2-4 4-3 4c0 1 0 1-1 1c0-1-3 1-6 4c-2 3-4 5-3 3zM483 217c0-1 0-2 0-3c0-1 0-4-1-7c0-5 0-7-2-8c-1-1-2-2-1-3c0-2-1-2-3-1c-1 1-1 1 0 1c2 0 2 0 1 1c-1 1-1 3 0 6c1 1 1 3 1 4c0 1 1 3 2 4c0 1 1 3 1 5c0 3 2 4 2 1zM550 213c-2-4-7-16-9-19c-2-1-2-1-1 0c0 2 0 2-1 2c0-1-1-1-1 0c0 1 2 2 2 1c0-2 7 10 9 16c1 3 2 5 2 5c0-1 0-3-1-5zM372 201c0-3-1-1-1 5c0 6 1 8 1 5c0-3 0-7 0-10zM543 211c-6-10-9-17-9-17c1 0 2 3 4 6c2 3 3 4 2 3c-1-5 2-1 4 5c3 7 2 8-1 3zM534 203c-3-5-5-9-4-9c1 2 9 17 9 17c0 1-3-3-5-8zM596 208c0-1 1-2 2-3c1-1 1-1 0-1c-1 0-1-1 1-2l2-2-3 0c-2 0-4 0-6 0c-1-1-2-1-2-1c-1 0-1-1-1-2c0-2 0-2-1 1c-1 4 0 8 2 10c3 1 7 1 6 0zM337 185c0-9-1-11-5-11c-1 0-2 0-1 1c1 0 1 1-1 3c0 1-1 3-1 4c1 0 0 1 0 2c-1 1-2 0-2-3c-1-2-1-3-2-3c-1 2 4 20 8 24c2 3 5-6 4-17zM350 191c0-7-5-35-7-39c-2-3 0 27 1 33c2 5 6 14 6 14c1 0 1-3 0-8zM598 198c-1-1-1-1 0-1c1 0 1 0 0-1c-1-1-1-1 0-1c1-1 2-1 2-2c-1-1 0-1 0-1c1 0 2-1 2-1c0-1 1-2 2-3c1-1 2-2 1-2c-1-1-1-1 1-1c1 0 1 0 0-1c-1 0 0-1 3-2c3-2 3-2 2-4c-1-1-1-1 1 0c2 1 3 2 3 1c0 0 1-1 1 0c1 0 2 0 2-1c0-1 1-1 2-1c4 2 4 2 3 0c-2-3-1-3 3 0c4 4 6 4 9 1c6-5 5-15-1-20c-6-4-12-2-21 5c-4 3-15 16-15 18c0 0-1 1-1 1c-1 0-3 2-4 4c-4 7-2 13 4 13c2 0 2 0 1-1zM247 187c-4-5-4-5-6-3c-3 4 1 12 7 11c1-1 2 0 2 0c0 1 0 1 1 0c0-1-1-4-4-8zM478 192c1-1 1-1 0-1c-1 0-2-4-1-5c1 0-2-4-4-4c-1 0-2 3-1 4c2 2 2 2 3 5c0 2 2 3 3 1zM364 187c-1-4-2-14-2-13c1 1 3 14 3 15c-1 0-1-1-1-2zM476 178c-2 0-2-1-1-4c0-2 0-4-1-6c-1-1-2-2-1-2c1 0 1-3-1-5c-3-2-5 0-5 3c0 2 1 3 1 3c0 0 1 1 1 3c0 2 0 4 1 4c1 1 1 1 0 1c-1 0-1 0 0 1c1 0 1 1 1 2c-1 1 0 1 3 1c2 0 3 0 2-1zM451 171c-1-3-1-5 1-9c1-3 1-9-1-8c0 1-1 0-2-1c-1 0-3-1-4-1l-3 0 2-1c3-1 3-1 1-1c-1 0-3 0-4 1c-2 1-3 1-3 0c-1-1 4-4 7-4c4 0 9 3 10 7c1 3 1 4-1 11c-2 5-3 7-3 6zM319 170c1-1 1-5 1-11c0-7 0-9-1-7c-1 3-1 2 0-2c0-7-1-12-3-11c-2 0-1-2 1-3c1 0 1-2 2-6c0-5 0-5-1-2c-1 3-1 3-1-3c0-4 0-8 0-9c-1-3-1-3 0-2c1 1 1 1 1-1c0-1-1-2-3-2c-4 0-9-2-9-3c0 0 1 0 2 1c5 1 7-1 7-5c0-3 0-4 1-2c1 3 2-1 2-9c-2-11-7-19-15-20c-2 0-4-1-6-2c-3-3-18-3-23 1c-8 6-2 16 11 15c5-1 6 0 10 3c2 2 3 4 2 3c-2 0-1 3 2 8c1 2 2 3 1 3c0-1-2-3-3-5c-1-2-2-4-3-4c0 1 3 7 7 11c3 4 3 4 1 3l-3-2 2 3c3 3 3 6 1 4c-1 0 0 1 1 3c1 2 3 3 3 4c1 0 1 1 1 1c0 1-1 1-1 0c-1 0-1 0 0 1c1 2 1 2 0 3c-1 1-1 2 0 3c0 1 0 1-2 1c-1-1-1-1 1 1c1 1 3 3 4 4c2 3 2 3 0 3c-1-1-2-1-2 4c0 2 0 5 1 6c1 0 1 1 0 1c0 0-1 3 0 5c0 1 0 1-1 1c-1 0-1 1 0 1c1 1 1 2 1 3c-1 0 0 1 1 3c2 2 1 3-1 1c-1-1-1-1-1 1c0 5 9 9 12 6zM470 158c4-2 3-4-1-4c-3 0-5 3-2 4c1 0 1 0 0 1c-1 1-1 1 0 1c0 0 2-1 3-2zM396 157c0-4 4-9 7-9c2 0 0 5-2 5c-1 0-3 2-4 3c0 1-1 2-1 1zM527 152c0-5-1-5-2 0c-1 2-1 3 0 3c1-1 1 0 1 0c0 1 0 2 0 2c1 0 1-2 1-5zM470 152c3-2 3-6 2-8c-1-1 0-2 0-3c1 0-1-1-4-1c-5 0-5 0-5 3c0 1 1 3 1 4c1 0 1 1 0 1c0 0 0 1 1 2c1 1 1 1-1 1c-1-1-1-1 0 0c3 2 4 2 6 1zM349 128c2-5 0-5-1 1c-1 3-2 8-2 12l0 7 1-8c1-5 1-10 2-12zM471 137c2-1 2-2 1-4c-1-4-1-3-1-7c0-3 0-3-1-2c-1 2-1 2-1-1c-2-9-3-18-3-19c1 0 1 2 3 10l1 6-1-6c0-11-3-26-5-32c-1-4-1-5 0-4c1 3 3 8 5 18c0 3 1 5 1 4c0-9-4-23-8-26c-2-1-2-2-1-2c1 1 1-1 0-2c-1 0-1 0 0-1c1-1 1-2-1-4c-2-1-3-3-2-3c0-1 0-2-1-2c-1-2-1-2 0-2c1 0 1 0 0-1c-1-1-1-2 0-2c0 0 2 1 2 2c1 1 2 2 2 2c0-2-4-6-5-6c-1 0-1 0 0 1c0 2-1 1-4-1c-1-1-2-2-1-2c0 0 1 0 1 1c1 1 2 1 2 1c1 0 0-1-1-2c-1-1-2-2-1-2c1 0 1 0 0-1c-2-3 0-2 4 1l3 3-2-4c-2-3-4-5-7-7c-2-1-3-2-2-2c3 1 3-1 0-1c-1-1-2-1-2-2c1 0 0-1-1-2c0-1-1-2-1-3c0-1 0-2-1-3c-1 0-1-1 0-1c0-1-1-3-2-5c-3-5-4-6-1-4c1 1 1 1 0-1c-1-2-10-7-14-7c-7 0-16 7-18 13c-3 12 8 33 16 33c3 0 2-2-1-2c-2-1-4-2-5-3c-2-3-1-3 1-1c3 3 5 4 7 2c0-1 1-1 1-1c1 0 1 1 0 1c-1 1-1 2 0 2c0 0 2 1 3 3c2 1 3 2 4 1c1 0 1 0 1 1c0 1 1 3 3 5c9 8 13 20 15 45c2 15 4 25 5 22c1-1 1-1 1 1c0 6 7 9 12 5zM354 129c1-8 6-16 7-14c1 1 0 2 0 3c-2 1-5 8-5 11c1 2 0 3-1 3c-2 0-2-1-1-3zM236 125c2-3 3-6 1-5c0 1-1 0 0-1c0-1 0-2 0-3c0 0 1 1 1 2c1 2 1 1 1-4c0-4 0-6-1-6c-2 1-1 0 0-2c1 0 2-2 2-3c0-2 0-2-1-1c0 1-1 2-2 2c0 0-1 1-1 1c0 1 0 1-1 0c0-1-1-1-2 0c0 1-1 1-1 0c0 0-1 0-2 2c-1 1-1 1 0 0c0-1 0-3-1-3c-1-1-1-1 0-1c1 0 1 0 1-1c-1-1 0-1 0 0c3 0 5-2 5-4c0-2 0-2 1-1c1 1 1 1 1-1c0-2-5-12-7-13c-1 0-1 1 0 2l2 2-3-2c-3-3-4-3-1-2c1 0 1 0 1-1c-3-3-14-1-18 4c-2 3-3 5-1 5c2 0 5 4 4 4c0 0 0 1 1 0c0 0 1 1 2 2c1 1 2 2 3 2c1 0 1 0 0 1c-1 1-1 1 0 1c1 0 2-1 3-1c1-1 1-1 1 0c-1 0 0 2 2 3c1 2 2 3 1 3c-1 0-2 0-2-1c0 0-1-1-2-1c-2-1-3 0-2 1c0 1 0 1-1 0c-2-1-2-1-2 1c0 2 1 3 1 5c1 1 2 2 2 3c0 1 0 1-1 0c-1-1-1-1-1 0c0 1 1 2 2 2c1 0 1 0 1 1c0 1 0 2 1 2c1 0 1 1 1 1c0 1-1 0-3-1c-1-1-2-2-1-1c1 2 1 3 0 2c-1 0-1 0 0 2c3 5 11 7 16 3zM460 107c-1-8-2-16-3-18c0-3 0-3 1-2c1 2 4 30 4 33c0 1-1-5-2-13zM540 117c1-2 1-3 1-7c0-4 0-4 2-2c1 3-1 9-4 10c-1 1-1 1 1-1zM452 88c-1-3-2-6-3-7c0-2 0-2 1-2c1 1 5 14 4 15c0 0-1-3-2-6zM377 87c0-1 0-1-1 0c0 0-1 1-1 1c-1 0-1-1 0-1c0-1 0-1-1-1c-1 1-2 0-2 0c0-1-1-2-2-2c-1 0-2 0-2 1c1 0 0 1-1 1c-2 0-2-1 0-2c3-2 12 0 12 4c0 2-1 1-2-1zM314 86c0-1 0-1-1-1c0 1-1 0-1-1c-1 0-1-1 0 0c2 1 1-2-2-4c-1-1-3-3-4-4c-1-2-1-2 1-1c1 1 2 2 1 2c0 1 0 1 1 1c2-1 7 7 6 9c-1 0-1 0-1-1zM439 31c0-1-1-1-1 0c0 0-2-1-4-4c-2-4-3-5-5-5c-1 1-2 0-2-1c1-1 0-1-1 0c-1 0-2 0-2-1c0-1 1-1 2-1c1 0 1 0 0-1c-2-2-11 1-13 4c-2 2-2 3-1 4c0 0 0 1-1 3c-1 2-1 2-1-1c0-8 5-14 14-16c5 0 10 1 8 2c-1 1-1 1 1 2c2 1 5 6 7 12c1 5 1 7-1 3z"/></svg>